<?xml version="1.0" encoding="UTF-8" standalone="no"?>
<svg
   xmlns:dc="http://purl.org/dc/elements/1.1/"
   xmlns:cc="http://creativecommons.org/ns#"
   xmlns:rdf="http://www.w3.org/1999/02/22-rdf-syntax-ns#"
   xmlns:svg="http://www.w3.org/2000/svg"
   xmlns="http://www.w3.org/2000/svg"
   xmlns:sodipodi="http://sodipodi.sourceforge.net/DTD/sodipodi-0.dtd"
   xmlns:inkscape="http://www.inkscape.org/namespaces/inkscape"
   width="11.47132mm"
   height="11.297787mm"
   viewBox="0 0 11.47132 11.297787"
   version="1.1"
   id="svg1572"
   inkscape:version="1.0.1 (3bc2e813f5, 2020-09-07)"
   sodipodi:docname="Icon.svg">
  <defs
     id="defs1566" />
  <sodipodi:namedview
     id="base"
     pagecolor="#ffffff"
     bordercolor="#666666"
     borderopacity="1.0"
     inkscape:pageopacity="0.0"
     inkscape:pageshadow="2"
     inkscape:zoom="3.959798"
     inkscape:cx="-11.476357"
     inkscape:cy="8.2700971"
     inkscape:document-units="mm"
     inkscape:current-layer="layer1"
     inkscape:document-rotation="0"
     showgrid="false"
     inkscape:snap-bbox="true"
     inkscape:window-width="1200"
     inkscape:window-height="967"
     inkscape:window-x="1278"
     inkscape:window-y="792"
     inkscape:window-maximized="0" />
  <metadata
     id="metadata1569">
    <rdf:RDF>
      <cc:Work
         rdf:about="">
        <dc:format>image/svg+xml</dc:format>
        <dc:type
           rdf:resource="http://purl.org/dc/dcmitype/StillImage" />
        <dc:title></dc:title>
      </cc:Work>
    </rdf:RDF>
  </metadata>
  <g
     inkscape:label="Ebene 1"
     inkscape:groupmode="layer"
     id="layer1"
     transform="translate(-105.65342,-73.848988)">
    <path
       d="m 109.85752,74.519266 c -1.51695,0.352778 -2.78695,0.670278 -2.8575,0.740833 -0.86484,3.518909 -0.86587,3.856526 -1.3466,5.32892 2.20169,3.976526 4.00512,4.415243 3.88204,4.557756 l 6.24872,-1.314176 0.67028,-2.8575 0.67028,-2.822222 -1.72861,-2.151944 c -0.9525,-1.199445 -1.97556,-2.151945 -2.25778,-2.151945 -0.28222,0.03528 -1.76389,0.3175 -3.28083,0.670278 z m 5.04472,1.834444 c 1.5875,1.975556 1.62278,2.363611 0.70555,5.609167 -0.35277,1.27 -0.45861,1.305278 -2.8575,1.869722 -1.37583,0.3175 -2.71639,0.564444 -2.96333,0.564444 -0.24694,0 -1.12889,-0.811388 -1.94028,-1.763888 -1.62278,-1.905 -1.65805,-2.328334 -0.70555,-5.679722 0.35277,-1.199445 0.45861,-1.305278 2.75166,-1.799167 3.45723,-0.776111 3.42195,-0.811389 5.00945,1.199444 z"
       id="path882"
       style="stroke-width:0.0352777"
       sodipodi:nodetypes="sccccccccscccssccc" />
    <path
       style="fill:#ff8c02;fill-opacity:1;stroke:#ff8c02;stroke-width:1.26269;stroke-opacity:1"
       d="m 413.41529,317.88003 c -2.65346,-2.0764 -7.55278,-7.57074 -9.21551,-10.33475 -0.44906,-0.74648 -1.00788,-2.13285 -1.24181,-3.08084 -0.36789,-1.49078 -0.38488,-2.02755 -0.12575,-3.97382 0.31894,-2.39548 1.38393,-6.81344 2.48502,-10.30876 1.1869,-3.76772 1.86019,-4.14868 10.93696,-6.1884 8.6607,-1.94621 10.57899,-2.06346 12.76832,-0.78043 1.89321,1.1095 7.62213,8.22379 9.05318,11.24242 1.41179,2.97804 1.22848,6.21298 -0.75844,13.38452 -1.44293,5.20807 -1.78862,5.82029 -3.80855,6.74505 -1.64501,0.75311 -6.61163,2.02318 -12.4963,3.19557 -6.59586,1.31408 -6.05397,1.30699 -7.59712,0.0994 z"
       id="path2153"
       transform="scale(0.26458333)" />
  </g>
</svg>
