<svg width="668" height="360" xmlns="http://www.w3.org/2000/svg" xmlns:xlink="http://www.w3.org/1999/xlink" overflow="hidden"><defs><clipPath id="clip0"><rect x="11" y="194" width="668" height="360"/></clipPath><clipPath id="clip1"><rect x="425" y="197" width="60" height="60"/></clipPath><clipPath id="clip2"><rect x="425" y="197" width="60" height="60"/></clipPath><clipPath id="clip3"><rect x="425" y="197" width="60" height="60"/></clipPath><clipPath id="clip4"><rect x="240" y="395" width="36" height="37"/></clipPath><clipPath id="clip5"><rect x="240" y="395" width="36" height="37"/></clipPath><clipPath id="clip6"><rect x="240" y="395" width="36" height="37"/></clipPath><clipPath id="clip7"><rect x="102" y="357" width="37" height="37"/></clipPath><clipPath id="clip8"><rect x="102" y="357" width="37" height="37"/></clipPath><clipPath id="clip9"><rect x="102" y="357" width="37" height="37"/></clipPath><clipPath id="clip10"><rect x="155" y="425" width="36" height="37"/></clipPath><clipPath id="clip11"><rect x="155" y="425" width="36" height="37"/></clipPath><clipPath id="clip12"><rect x="155" y="425" width="36" height="37"/></clipPath><clipPath id="clip13"><rect x="406" y="274" width="37" height="37"/></clipPath><clipPath id="clip14"><rect x="406" y="274" width="37" height="37"/></clipPath><clipPath id="clip15"><rect x="406" y="274" width="37" height="37"/></clipPath></defs><g clip-path="url(#clip0)" transform="translate(-11 -194)"><path d="M20.5001 212.726C20.5001 204.317 27.3169 197.5 35.726 197.5L663.274 197.5C671.683 197.5 678.5 204.317 678.5 212.726L678.5 538.274C678.5 546.683 671.683 553.5 663.274 553.5L35.726 553.5C27.3169 553.5 20.5001 546.683 20.5001 538.274Z" stroke="#000000" stroke-linejoin="round" stroke-miterlimit="10" fill="#FFFFFF" fill-rule="evenodd"/><text font-family="Arial,Arial_MSFontService,sans-serif" font-weight="400" font-size="37" transform="translate(34.1455 242)">Normal Time</text><path d="M400.5 343 424.25 295.5 486.75 295.5 510.5 343 486.75 390.5 424.25 390.5Z" stroke="#000000" stroke-linejoin="round" stroke-miterlimit="10" fill="#D9D9D9" fill-rule="evenodd"/><text font-family="Arial,Arial_MSFontService,sans-serif" font-weight="400" font-size="24" transform="translate(438.245 337)">Ctx<tspan font-size="24" x="-23.08" y="29">Manger</tspan></text><path d="M34.5001 341.5 58.5 293.5 120.5 293.5 144.5 341.5 120.5 389.5 58.5 389.5Z" stroke="#000000" stroke-linejoin="round" stroke-miterlimit="10" fill="#D9D9D9" fill-rule="evenodd"/><path d="M235.5 457 259.25 409.5 321.75 409.5 345.5 457 321.75 504.5 259.25 504.5Z" stroke="#000000" stroke-linejoin="round" stroke-miterlimit="10" fill="#D9D9D9" fill-rule="evenodd"/><path d="M81.5001 483.5 105.5 435.5 167.5 435.5 191.5 483.5 167.5 531.5 105.5 531.5Z" stroke="#000000" stroke-linejoin="round" stroke-miterlimit="10" fill="#D9D9D9" fill-rule="evenodd"/><g clip-path="url(#clip1)"><g clip-path="url(#clip2)"><g clip-path="url(#clip3)"><path d="M463.75 209.5 467.5 209.5 467.5 205.75 460 205.75 460 220.75 463.75 220.75Z"/><path d="M450 238.25 435 238.25 435 223.25C435 219.125 438.375 215.75 442.5 215.75 446.625 215.75 450 219.125 450 223.25L450 238.25ZM467.5 212 466.25 212 466.25 223.25 457.5 223.25 457.5 212 442.5 212C436.312 212 431.25 217.062 431.25 223.25L431.25 242 452.5 242 452.5 248.25 457.5 248.25 457.5 242 478.75 242 478.75 223.25C478.75 217.062 473.688 212 467.5 212Z"/></g></g></g><path d="M491.5 222.167C491.5 219.589 493.589 217.5 496.167 217.5L633.833 217.5C636.411 217.5 638.5 219.589 638.5 222.167L638.5 240.833C638.5 243.411 636.411 245.5 633.833 245.5L496.167 245.5C493.589 245.5 491.5 243.411 491.5 240.833Z" stroke="#000000" stroke-linejoin="round" stroke-miterlimit="10" fill="#D9D9D9" fill-rule="evenodd"/><text font-family="Arial,Arial_MSFontService,sans-serif" font-weight="400" font-size="19" transform="translate(506.082 237)">StateManager</text><path d="M0.5-1.40768e-06 0.500086 30.6241-0.499914 30.6241-0.5 1.40768e-06ZM4.00008 29.2908 0.000104987 37.2908-3.99992 29.2908Z" transform="matrix(1 0 0 -1 455.5 294.791)"/><g clip-path="url(#clip4)"><g clip-path="url(#clip5)"><g clip-path="url(#clip6)"><path d="M23.25 7.5 25.5 7.5 25.5 5.25 21 5.25 21 14.25 23.25 14.25Z" transform="matrix(1 0 0 1.02778 240 395)"/><path d="M15 24.75 6 24.75 6 15.75C6 13.275 8.025 11.25 10.5 11.25 12.975 11.25 15 13.275 15 15.75L15 24.75ZM25.5 9 24.75 9 24.75 15.75 19.5 15.75 19.5 9 10.5 9C6.7875 9 3.75 12.0375 3.75 15.75L3.75 27 16.5 27 16.5 30.75 19.5 30.75 19.5 27 32.25 27 32.25 15.75C32.25 12.0375 29.2125 9 25.5 9Z" transform="matrix(1 0 0 1.02778 240 395)"/></g></g></g><g clip-path="url(#clip7)"><g clip-path="url(#clip8)"><g clip-path="url(#clip9)"><path d="M125.896 364.708 128.208 364.708 128.208 362.396 123.583 362.396 123.583 371.646 125.896 371.646Z"/><path d="M117.417 382.438 108.167 382.438 108.167 373.188C108.167 370.644 110.248 368.562 112.792 368.562 115.335 368.562 117.417 370.644 117.417 373.188L117.417 382.438ZM128.208 366.25 127.438 366.25 127.438 373.188 122.042 373.188 122.042 366.25 112.792 366.25C108.976 366.25 105.854 369.372 105.854 373.188L105.854 384.75 118.958 384.75 118.958 388.604 122.042 388.604 122.042 384.75 135.146 384.75 135.146 373.188C135.146 369.372 132.024 366.25 128.208 366.25Z"/></g></g></g><g clip-path="url(#clip10)"><g clip-path="url(#clip11)"><g clip-path="url(#clip12)"><path d="M23.25 7.5 25.5 7.5 25.5 5.25 21 5.25 21 14.25 23.25 14.25Z" transform="matrix(1 0 0 1.02778 155 425)"/><path d="M15 24.75 6 24.75 6 15.75C6 13.275 8.025 11.25 10.5 11.25 12.975 11.25 15 13.275 15 15.75L15 24.75ZM25.5 9 24.75 9 24.75 15.75 19.5 15.75 19.5 9 10.5 9C6.7875 9 3.75 12.0375 3.75 15.75L3.75 27 16.5 27 16.5 30.75 19.5 30.75 19.5 27 32.25 27 32.25 15.75C32.25 12.0375 29.2125 9 25.5 9Z" transform="matrix(1 0 0 1.02778 155 425)"/></g></g></g><path d="M233.708 412.331 145.568 379.307 145.918 378.371 234.059 411.394ZM234.039 407.649 240.127 414.201 231.232 415.14ZM145.588 383.053 139.5 376.5 148.395 375.561Z"/><path d="M143.689 381.71 170.266 420.359 169.442 420.926 142.865 382.277ZM140.737 385.358 139.5 376.5 147.329 380.826ZM172.395 417.278 173.632 426.136 165.803 421.81Z"/><path d="M6.65017 0.685579 60.0215 10.2646 59.8449 11.2489 6.47351 1.66985ZM7.16755 5.35034 0 0 8.58081-2.52384ZM59.3275 6.58414 66.495 11.9345 57.9142 14.4583Z" transform="matrix(-1 0 0 1 239.995 413.5)"/><path d="M188.5 390C188.5 383.649 193.649 378.5 200 378.5 206.351 378.5 211.5 383.649 211.5 390 211.5 396.351 206.351 401.5 200 401.5 193.649 401.5 188.5 396.351 188.5 390Z" stroke="#000000" stroke-linejoin="round" stroke-miterlimit="10" fill-rule="evenodd"/><text fill="#FFFFFF" font-family="Arial,Arial_MSFontService,sans-serif" font-weight="400" font-size="19" transform="translate(194.009 396)">2<tspan fill="#000000" font-size="24" x="-136.149" y="-61">Holon</tspan><tspan fill="#000000" font-size="24" x="-120.483" y="-32">(A)</tspan><tspan fill="#000000" font-size="24" x="65.7343" y="53">Holon</tspan><tspan fill="#000000" font-size="24" x="80.7343" y="82">(C)</tspan><tspan fill="#000000" font-size="24" x="-88.7221" y="81">Holon</tspan><tspan fill="#000000" font-size="24" x="-73.3888" y="110">(B)</tspan></text><path d="M474.5 299C474.5 292.649 479.425 287.5 485.5 287.5 491.575 287.5 496.5 292.649 496.5 299 496.5 305.351 491.575 310.5 485.5 310.5 479.425 310.5 474.5 305.351 474.5 299Z" stroke="#000000" stroke-linejoin="round" stroke-miterlimit="10" fill-rule="evenodd"/><text fill="#FFFFFF" font-family="Arial,Arial_MSFontService,sans-serif" font-weight="400" font-size="19" transform="translate(479.953 306)">1</text><g clip-path="url(#clip13)"><g clip-path="url(#clip14)"><g clip-path="url(#clip15)"><path d="M429.896 281.708 432.208 281.708 432.208 279.396 427.583 279.396 427.583 288.646 429.896 288.646Z"/><path d="M421.417 299.438 412.167 299.438 412.167 290.188C412.167 287.644 414.248 285.562 416.792 285.562 419.335 285.562 421.417 287.644 421.417 290.188L421.417 299.438ZM432.208 283.25 431.438 283.25 431.438 290.188 426.042 290.188 426.042 283.25 416.792 283.25C412.976 283.25 409.854 286.372 409.854 290.188L409.854 301.75 422.958 301.75 422.958 305.604 426.042 305.604 426.042 301.75 439.146 301.75 439.146 290.188C439.146 286.372 436.024 283.25 432.208 283.25Z"/></g></g></g></g></svg>