<svg width="668" height="362" xmlns="http://www.w3.org/2000/svg" xmlns:xlink="http://www.w3.org/1999/xlink" overflow="hidden"><defs><clipPath id="clip0"><rect x="15" y="196" width="668" height="362"/></clipPath><clipPath id="clip1"><rect x="425" y="197" width="60" height="60"/></clipPath><clipPath id="clip2"><rect x="425" y="197" width="60" height="60"/></clipPath><clipPath id="clip3"><rect x="425" y="197" width="60" height="60"/></clipPath><clipPath id="clip4"><rect x="240" y="395" width="36" height="37"/></clipPath><clipPath id="clip5"><rect x="240" y="395" width="36" height="37"/></clipPath><clipPath id="clip6"><rect x="240" y="395" width="36" height="37"/></clipPath><clipPath id="clip7"><rect x="114" y="359" width="37" height="37"/></clipPath><clipPath id="clip8"><rect x="114" y="359" width="37" height="37"/></clipPath><clipPath id="clip9"><rect x="114" y="359" width="37" height="37"/></clipPath><clipPath id="clip10"><rect x="406" y="274" width="37" height="37"/></clipPath><clipPath id="clip11"><rect x="406" y="274" width="37" height="37"/></clipPath><clipPath id="clip12"><rect x="406" y="274" width="37" height="37"/></clipPath></defs><g clip-path="url(#clip0)" transform="translate(-15 -196)"><path d="M24.5001 216.684C24.5001 208.298 31.2979 201.5 39.6836 201.5L667.317 201.5C675.702 201.5 682.5 208.298 682.5 216.684L682.5 541.317C682.5 549.702 675.702 556.5 667.317 556.5L39.6836 556.5C31.2979 556.5 24.5001 549.702 24.5001 541.317Z" stroke="#000000" stroke-linejoin="round" stroke-miterlimit="10" fill="#FFFFFF" fill-rule="evenodd"/><text font-family="Arial,Arial_MSFontService,sans-serif" font-weight="400" font-size="37" transform="translate(37.9255 246)">Virtual Time</text><path d="M0.0707107 0.494975-2.11679 0.807475-1.9746 0.764909-4.0996 1.76491-4.00877 1.70968-6.13377 3.33468-6.07871 3.28574-8.14121 5.41074-10.0989 8.04851-11.944 11.191-13.7419 14.7267-15.4154 18.6345-18.4007 27.5956-20.6373 37.4854-22.1299 48.132-22.6255 59.0852-22.6351 58.9623-22.0726 61.7123-22.1407 61.5441-20.3907 64.2941-20.4629 64.205-17.6504 66.955-17.7106 66.9047-13.8356 69.6547-8.94846 72.3108-3.10451 74.9828 3.74454 77.6593 11.5343 80.276 20.204 82.8329 29.6897 85.329 39.9928 87.8266 51.0425 90.1986 62.9106 92.5722 75.4011 94.8204 88.5818 97.0067 102.389 99.1308 116.756 101.13 131.689 103.067 147.185 104.941 163.117 106.69 179.487 108.315 196.294 109.814 230.914 112.501 266.717 114.626 303.397 116.25 340.638 117.25 371.588 117.507 371.579 118.507 340.612 118.25 303.353 117.25 266.658 115.624 230.836 113.498 196.206 110.811 179.388 109.31 163.008 107.685 147.065 105.934 131.561 104.058 116.619 102.12 102.236 100.119 88.4182 97.9933 75.2239 95.8046 62.7144 93.5528 50.8325 91.1764 39.7572 88.7984 29.4353 86.296 19.921 83.7921 11.2157 81.224 3.38046 78.5907-3.52049 75.8922-9.42654 73.1892-14.4144 70.4703-18.2894 67.7203C-18.3108 67.7051-18.3308 67.6883-18.3496 67.67L-21.1621 64.92C-21.1895 64.8932-21.2137 64.8633-21.2343 64.8309L-22.9843 62.0809C-23.0171 62.0295-23.0401 61.9725-23.0524 61.9127L-23.6149 59.1627C-23.6231 59.1223-23.6264 59.081-23.6245 59.0398L-23.1201 47.993-21.6127 37.2646-19.3493 27.2794-16.3346 18.2405-14.6331 14.2733-12.806 10.684-10.9011 7.45149-8.85879 4.71426-6.79629 2.58926C-6.77914 2.57159-6.76079 2.55528-6.74122 2.54032L-4.61622 0.915321C-4.588 0.893737-4.55755 0.87522-4.5254 0.860091L-2.4004-0.139909C-2.35538-0.161093-2.30746-0.175439-2.25821-0.182475L-0.0707107-0.494975ZM370.283 113.996 378.25 118.062 370.217 121.996Z" transform="matrix(-1 0 0 1 506.715 345.5)"/><path d="M400.5 343 424.25 295.5 486.75 295.5 510.5 343 486.75 390.5 424.25 390.5Z" stroke="#000000" stroke-linejoin="round" stroke-miterlimit="10" fill="#D9D9D9" fill-rule="evenodd"/><text font-family="Arial,Arial_MSFontService,sans-serif" font-weight="400" font-size="24" transform="translate(437.823 339)">Ctx<tspan font-size="24" x="-23.08" y="29">Manger</tspan></text><path d="M235.5 457 259.25 409.5 321.75 409.5 345.5 457 321.75 504.5 259.25 504.5Z" stroke="#000000" stroke-linejoin="round" stroke-miterlimit="10" fill="#D9D9D9" fill-rule="evenodd"/><path d="M40.5001 417.5 64.5 369.5 127.5 369.5 151.5 417.5 127.5 465.5 64.5 465.5Z" stroke="#000000" stroke-linejoin="round" stroke-miterlimit="10" fill="#D9D9D9" fill-rule="evenodd"/><g clip-path="url(#clip1)"><g clip-path="url(#clip2)"><g clip-path="url(#clip3)"><path d="M463.75 209.5 467.5 209.5 467.5 205.75 460 205.75 460 220.75 463.75 220.75Z"/><path d="M450 238.25 435 238.25 435 223.25C435 219.125 438.375 215.75 442.5 215.75 446.625 215.75 450 219.125 450 223.25L450 238.25ZM467.5 212 466.25 212 466.25 223.25 457.5 223.25 457.5 212 442.5 212C436.312 212 431.25 217.062 431.25 223.25L431.25 242 452.5 242 452.5 248.25 457.5 248.25 457.5 242 478.75 242 478.75 223.25C478.75 217.062 473.688 212 467.5 212Z"/></g></g></g><path d="M491.5 222.167C491.5 219.589 493.589 217.5 496.167 217.5L633.833 217.5C636.411 217.5 638.5 219.589 638.5 222.167L638.5 240.833C638.5 243.411 636.411 245.5 633.833 245.5L496.167 245.5C493.589 245.5 491.5 243.411 491.5 240.833Z" stroke="#000000" stroke-linejoin="round" stroke-miterlimit="10" fill="#D9D9D9" fill-rule="evenodd"/><text font-family="Arial,Arial_MSFontService,sans-serif" font-weight="400" font-size="19" transform="translate(506.082 237)">StateManager</text><path d="M0.5-1.40768e-06 0.500086 30.6241-0.499914 30.6241-0.5 1.40768e-06ZM4.00008 29.2908 0.000104987 37.2908-3.99992 29.2908Z" transform="matrix(1 0 0 -1 455.5 294.791)"/><g clip-path="url(#clip4)"><g clip-path="url(#clip5)"><g clip-path="url(#clip6)"><path d="M23.25 7.5 25.5 7.5 25.5 5.25 21 5.25 21 14.25 23.25 14.25Z" transform="matrix(1 0 0 1.02778 240 395)"/><path d="M15 24.75 6 24.75 6 15.75C6 13.275 8.025 11.25 10.5 11.25 12.975 11.25 15 13.275 15 15.75L15 24.75ZM25.5 9 24.75 9 24.75 15.75 19.5 15.75 19.5 9 10.5 9C6.7875 9 3.75 12.0375 3.75 15.75L3.75 27 16.5 27 16.5 30.75 19.5 30.75 19.5 27 32.25 27 32.25 15.75C32.25 12.0375 29.2125 9 25.5 9Z" transform="matrix(1 0 0 1.02778 240 395)"/></g></g></g><g clip-path="url(#clip7)"><g clip-path="url(#clip8)"><g clip-path="url(#clip9)"><path d="M137.896 366.708 140.208 366.708 140.208 364.396 135.583 364.396 135.583 373.646 137.896 373.646Z"/><path d="M129.417 384.438 120.167 384.438 120.167 375.188C120.167 372.644 122.248 370.562 124.792 370.562 127.335 370.562 129.417 372.644 129.417 375.188L129.417 384.438ZM140.208 368.25 139.438 368.25 139.438 375.188 134.042 375.188 134.042 368.25 124.792 368.25C120.976 368.25 117.854 371.372 117.854 375.188L117.854 386.75 130.958 386.75 130.958 390.604 134.042 390.604 134.042 386.75 147.146 386.75 147.146 375.188C147.146 371.372 144.024 368.25 140.208 368.25Z"/></g></g></g><path d="M5.52177 3.76917 131.901 104.681 131.278 105.462 4.8978 4.55062ZM3.75571 8.11755 0 0 8.74747 1.86596Z" transform="matrix(-1 0 0 1 406.09 292.5)"/><path d="M319.5 351C319.5 344.649 324.649 339.5 331 339.5 337.351 339.5 342.5 344.649 342.5 351 342.5 357.351 337.351 362.5 331 362.5 324.649 362.5 319.5 357.351 319.5 351Z" stroke="#000000" stroke-linejoin="round" stroke-miterlimit="10" fill-rule="evenodd"/><text fill="#FFFFFF" font-family="Arial,Arial_MSFontService,sans-serif" font-weight="400" font-size="19" transform="translate(325.283 358)">2</text><path d="M474.5 299C474.5 292.649 479.425 287.5 485.5 287.5 491.575 287.5 496.5 292.649 496.5 299 496.5 305.351 491.575 310.5 485.5 310.5 479.425 310.5 474.5 305.351 474.5 299Z" stroke="#000000" stroke-linejoin="round" stroke-miterlimit="10" fill-rule="evenodd"/><text fill="#FFFFFF" font-family="Arial,Arial_MSFontService,sans-serif" font-weight="400" font-size="19" transform="translate(479.953 306)">1</text><g clip-path="url(#clip10)"><g clip-path="url(#clip11)"><g clip-path="url(#clip12)"><path d="M429.896 281.708 432.208 281.708 432.208 279.396 427.583 279.396 427.583 288.646 429.896 288.646Z"/><path d="M421.417 299.438 412.167 299.438 412.167 290.188C412.167 287.644 414.248 285.562 416.792 285.562 419.335 285.562 421.417 287.644 421.417 290.188L421.417 299.438ZM432.208 283.25 431.438 283.25 431.438 290.188 426.042 290.188 426.042 283.25 416.792 283.25C412.976 283.25 409.854 286.372 409.854 290.188L409.854 301.75 422.958 301.75 422.958 305.604 426.042 305.604 426.042 301.75 439.146 301.75 439.146 290.188C439.146 286.372 436.024 283.25 432.208 283.25Z"/></g></g></g><path d="M6.55858 1.29314 252.94 69.3582 252.673 70.3221 6.2923 2.25703ZM6.64602 5.98586 0 0 8.77629-1.7253Z" transform="matrix(1 0 0 -1 153.5 362.34)"/><path d="M179.5 361.5C179.5 355.425 184.649 350.5 191 350.5 197.351 350.5 202.5 355.425 202.5 361.5 202.5 367.575 197.351 372.5 191 372.5 184.649 372.5 179.5 367.575 179.5 361.5Z" stroke="#000000" stroke-linejoin="round" stroke-miterlimit="10" fill-rule="evenodd"/><text fill="#FFFFFF" font-family="Arial,Arial_MSFontService,sans-serif" font-weight="400" font-size="19" transform="translate(185.387 368)">3</text><path d="M6.55992 1.2908 271.915 74.4861 271.65 75.4501 6.29401 2.2548ZM6.64836 5.98325 0 0 8.77562-1.72873Z" transform="matrix(-1 0 0 1 404.283 284.5)"/><path d="M150.5 341.5C150.5 335.425 155.425 330.5 161.5 330.5 167.575 330.5 172.5 335.425 172.5 341.5 172.5 347.575 167.575 352.5 161.5 352.5 155.425 352.5 150.5 347.575 150.5 341.5Z" stroke="#000000" stroke-linejoin="round" stroke-miterlimit="10" fill-rule="evenodd"/><text fill="#FFFFFF" font-family="Arial,Arial_MSFontService,sans-serif" font-weight="400" font-size="19" transform="translate(155.713 348)">4<tspan fill="#000000" font-size="24" x="101.504" y="101">Holon</tspan><tspan fill="#000000" font-size="24" x="116.504" y="130">(C)</tspan><tspan fill="#000000" font-size="24" x="-88.9807" y="63">Holon</tspan><tspan fill="#000000" font-size="24" x="-73.6473" y="92">(B)</tspan></text><path d="M0.0954348 0.490808-2.15457 0.928308-2.01662 0.879692-4.26662 2.06719-4.16262 1.99401-6.35011 3.99401-6.29529 3.93512-8.42029 6.62262-10.4506 9.88928-12.4307 13.7293-14.2894 18.1321-16.0287 23.042-17.6464 28.3947-19.0777 34.06-21.4465 46.4067-22.9407 59.6187-23.5004 73.2081-23.1896 76.5797-22.3884 79.9475-22.415 79.8666-20.9775 83.2416-19.0664 86.5636-16.6572 89.8948-13.7509 93.1683-10.3998 96.4557-6.55369 99.6794-2.2653 102.848 2.40235 105.959 7.50648 109.008 12.9856 111.934 25.0892 117.673 38.4346 122.973 52.973 127.901 68.5741 132.332 84.9897 136.201 102.157 139.509 119.95 142.193 138.117 144.19 156.657 145.376 168.597 145.656 168.573 146.656 156.593 146.374 138.008 145.184 119.8 143.182 101.968 140.491 84.7603 137.174 68.3009 133.293 52.6519 128.849 38.0654 123.902 24.6608 118.577 12.5144 112.816 6.99352 109.867 1.84765 106.791-2.8597 103.652-7.19631 100.446-11.1002 97.1693-14.4991 93.8317-17.4678 90.4802-19.9336 87.0614-21.8975 83.6334-23.335 80.2584C-23.3462 80.2323-23.355 80.2052-23.3616 80.1775L-24.1854 76.6703-24.4996 73.1669-23.9343 59.5063-22.4285 46.2183-20.0473 33.815-18.6036 28.1053-16.9713 22.708-15.2106 17.7429-13.3193 13.2707-11.2994 9.36072-9.20471 6.00238-7.07971 3.31488C-7.06305 3.29382-7.0447 3.2741-7.02488 3.25599L-4.83738 1.25599C-4.80598 1.22727-4.77101 1.20267-4.73338 1.18281L-2.48338-0.00469242C-2.44003-0.0275706-2.39355-0.0439522-2.34543-0.0533077L-0.0954348-0.490808ZM167.346 142.126 175.25 146.312 167.158 150.124Z" transform="matrix(-1 0 0 1 506.698 345.5)"/><path d="M530.5 391C530.5 384.649 535.425 379.5 541.5 379.5 547.575 379.5 552.5 384.649 552.5 391 552.5 397.351 547.575 402.5 541.5 402.5 535.425 402.5 530.5 397.351 530.5 391Z" stroke="#000000" stroke-linejoin="round" stroke-miterlimit="10" fill-rule="evenodd"/><text fill="#FFFFFF" font-family="Arial,Arial_MSFontService,sans-serif" font-weight="400" font-size="19" transform="translate(535.723 397)">5</text></g></svg>