<?xml version="1.0" encoding="UTF-8" standalone="no"?>
<svg
   xmlns:dc="http://purl.org/dc/elements/1.1/"
   xmlns:cc="http://creativecommons.org/ns#"
   xmlns:rdf="http://www.w3.org/1999/02/22-rdf-syntax-ns#"
   xmlns:svg="http://www.w3.org/2000/svg"
   xmlns="http://www.w3.org/2000/svg"
   xmlns:sodipodi="http://sodipodi.sourceforge.net/DTD/sodipodi-0.dtd"
   xmlns:inkscape="http://www.inkscape.org/namespaces/inkscape"
   version="1.0"
   width="336.000000pt"
   height="150.000000pt"
   viewBox="0 0 336.000000 150.000000"
   preserveAspectRatio="xMidYMid meet"
   id="svg881"
   sodipodi:docname="logo.svg"
   inkscape:version="1.0.1 (3bc2e813f5, 2020-09-07)">
  <metadata
     id="metadata887">
    <rdf:RDF>
      <cc:Work
         rdf:about="">
        <dc:format>image/svg+xml</dc:format>
        <dc:type
           rdf:resource="http://purl.org/dc/dcmitype/StillImage" />
        <dc:title></dc:title>
      </cc:Work>
    </rdf:RDF>
  </metadata>
  <defs
     id="defs885" />
  <sodipodi:namedview
     pagecolor="#ffffff"
     bordercolor="#666666"
     borderopacity="1"
     objecttolerance="10"
     gridtolerance="10"
     guidetolerance="10"
     inkscape:pageopacity="0"
     inkscape:pageshadow="2"
     inkscape:window-width="1920"
     inkscape:window-height="1137"
     id="namedview883"
     showgrid="false"
     inkscape:zoom="1.4486607"
     inkscape:cx="224"
     inkscape:cy="100"
     inkscape:window-x="1192"
     inkscape:window-y="706"
     inkscape:window-maximized="1"
     inkscape:current-layer="svg881" />
  <g
     transform="translate(0.000000,150.000000) scale(0.100000,-0.100000)"
     fill="#000000"
     stroke="none"
     id="g879">
    <path
       d="M2277 1270 c-43 -10 -79 -19 -81 -21 -1 -2 -9 -29 -17 -59 -12 -45 -18 -55 -34 -53 -35 5 -64 -7 -76 -28 -10 -19 -1 -111 17 -171 5 -16 -3 -18 -65 -18 -79 0 -67 -15 -92 119 -13 68 -36 101 -69 101 -23 0 -60 -33 -60 -54 0 -27 80 -441 90 -463 22 -52 110 -32 110 25 -1 15 -7 55 -14 90 l-14 62 69 0 c77 0 67 12 93 -115 14 -69 32 -95 66 -95 26 0 60 30 60 52 0 11 -16 103 -35 205 -19 102 -35 188 -35 191 0 4 15 -11 33 -32 l34 -39 94 19 94 20 19 81 19 80 -49 61 c-27 34 -56 61 -64 61 -8 -1 -50 -9 -93 -19z m143 -52 c45 -56 46 -67 20 -159 -10 -36 -13 -37 -81 -53 -39 -9 -77 -16 -84 -16 -7 0 -32 23 -55 50 -46 54 -47 66 -20 161 10 34 13 37 78 51 98 22 97 23 142 -34z"
       id="path861" />
    <path
       d="M660 825 l0 -235 50 0 49 0 3 76 3 77 48 -77 49 -76 59 0 60 0 -54 73 c-29 39 -57 78 -61 85 -5 8 12 40 48 87 l56 75 -57 0 -58 0 -47 -73 -48 -72 0 148 0 147 -50 0 -50 0 0 -235z"
       id="path863" />
    <path
       d="M1020 825 l0 -235 45 0 45 0 0 75 c0 41 3 75 8 75 4 0 28 -34 54 -75 l47 -75 56 0 c30 0 55 2 55 6 0 3 -25 39 -55 79 -30 41 -55 79 -55 84 0 5 25 41 55 80 l55 71 -59 0 -59 0 -44 -70 c-24 -38 -46 -69 -50 -70 -5 0 -8 65 -8 145 l0 145 -45 0 -45 0 0 -235z"
       id="path865" />
    <path
       d="M282 898 c-28 -79 -64 -180 -81 -225 l-30 -83 53 0 54 0 17 50 17 51 81 -3 81 -3 15 -47 15 -48 54 0 c39 0 53 3 50 13 -3 6 -38 108 -79 224 l-74 213 -61 0 -61 0 -51 -142z m115 -126 c-27 -2 -52 -1 -55 3 -5 5 17 83 40 145 9 23 12 17 37 -60 l27 -85 -49 -3z"
       id="path867" />
    <path
       d="M2570 960 c-11 -11 -20 -28 -20 -37 1 -43 59 -315 70 -328 19 -23 68 -18 93 9 26 28 117 242 117 274 0 28 -43 56 -74 48 -16 -4 -31 -20 -42 -46 -10 -21 -21 -37 -25 -35 -3 3 -10 25 -14 51 -11 76 -62 107 -105 64z"
       id="path869" />
    <path
       d="M3003 950 c-51 -10 -97 -21 -101 -24 -5 -3 -19 -44 -32 -90 l-23 -86 54 -70 c34 -45 60 -70 73 -70 40 0 196 34 196 43 0 5 -8 22 -17 38 -19 31 -34 34 -98 19 -37 -8 -42 -7 -62 18 -12 15 -22 30 -23 33 0 3 51 16 113 29 61 12 118 26 125 30 10 5 -2 25 -40 75 -29 38 -57 70 -63 71 -5 1 -52 -6 -102 -16z m137 -47 c19 -25 38 -51 42 -58 8 -13 -12 -18 -189 -56 -29 -6 -53 -14 -53 -18 0 -4 15 -25 34 -48 l35 -40 56 10 c50 9 57 8 69 -9 8 -10 13 -21 11 -23 -7 -6 -129 -30 -157 -31 -21 0 -37 13 -74 61 l-47 62 17 66 c10 36 22 73 26 81 7 13 130 46 180 49 8 0 31 -20 50 -46z"
       id="path871" />
    <path
       d="M2340 910 c-25 -25 -25 -22 5 -171 26 -126 38 -149 78 -149 36 0 57 19 57 53 0 63 -43 250 -62 269 -24 24 -53 23 -78 -2z"
       id="path873" />
    <path
       d="M1434 911 c-47 -12 -54 -19 -54 -56 l0 -34 35 15 c53 22 112 19 126 -7 14 -27 -1 -39 -51 -39 -54 -1 -114 -32 -129 -69 -43 -102 73 -187 158 -115 30 25 31 25 31 5 0 -18 6 -21 45 -21 l45 0 0 115 c0 139 -13 179 -64 200 -37 16 -91 18 -142 6z m116 -186 c0 -50 -53 -91 -89 -68 -25 16 -20 55 9 70 35 18 80 17 80 -2z"
       id="path875" />
    <path
       d="M177 495 l-37 -75 37 -75 37 -75 91 0 91 0 32 -65 32 -65 100 0 100 0 32 65 32 65 91 0 91 0 32 -65 32 -65 100 0 100 0 32 65 32 65 91 0 91 0 32 -65 32 -65 100 0 100 0 32 65 32 65 91 0 91 0 37 75 37 75 -37 75 -37 75 -96 0 -96 0 -34 -70 -34 -70 -91 0 -91 0 -34 70 -34 70 -96 0 -96 0 -34 -70 -34 -70 -86 0 -86 0 -34 70 -34 70 -96 0 -96 0 -34 -70 -34 -70 -91 0 -91 0 -34 70 -34 70 -96 0 -96 0 -37 -75z m245 -10 l32 -65 -32 -65 -32 -65 -80 0 -80 0 -32 65 -32 65 32 65 32 65 80 0 80 0 32 -65z m510 0 l32 -65 -32 -65 -32 -65 -80 0 -80 0 -32 65 -32 65 32 65 32 65 80 0 80 0 32 -65z m500 0 l32 -65 -32 -65 -32 -65 -80 0 -80 0 -32 65 -32 65 32 65 32 65 80 0 80 0 32 -65z m510 0 l32 -65 -32 -65 -32 -65 -80 0 -80 0 -32 65 -32 65 32 65 32 65 80 0 80 0 32 -65z m-1269 -130 c15 -31 27 -62 27 -70 0 -8 -12 -39 -27 -70 l-27 -55 -86 0 -86 0 -27 55 c-15 31 -27 62 -27 70 0 8 12 39 27 70 l27 55 86 0 86 0 27 -55z m509 -10 l32 -64 -29 -61 -29 -60 -86 0 -86 0 -27 55 c-15 31 -27 62 -27 70 0 8 12 39 27 70 l27 55 83 0 83 0 32 -65z m510 0 l32 -64 -29 -61 -29 -60 -86 0 -86 0 -27 55 c-15 31 -27 62 -27 70 0 8 12 39 27 70 l27 55 83 0 83 0 32 -65z"
       id="path877" />
  </g>
  <path
     style="fill:#ff9933;stroke:#ff9933;stroke-width:3.45146;fill-opacity:1;stroke-opacity:1"
     d="m 26.687711,152.20841 -4.010234,-8.53735 4.19817,-8.37482 4.198169,-8.37482 h 10.383888 10.383888 l 4.091585,8.6699 4.091586,8.6699 -4.131724,8.24227 -4.131724,8.24227 H 41.22963 30.697944 Z"
     id="path891"
     transform="scale(0.75)" />
  <path
     style="fill:#ff9933;fill-opacity:1;stroke:#ff9933;stroke-width:3.45146;stroke-opacity:1"
     d="m 59.932169,170.69708 c -4.121012,-8.62697 -4.11608,-8.88147 0.357643,-18.45497 l 3.122882,-6.68279 11.264378,0.007 11.264376,0.007 3.39394,7.38949 c 1.866666,4.06422 3.393939,8.17959 3.393939,9.14526 0,0.96567 -1.496481,4.93725 -3.325512,8.82573 l -3.325513,7.06996 H 74.750236 63.422171 Z"
     id="path893"
     transform="scale(0.75)" />
  <path
     style="fill:#ff9933;fill-opacity:1;stroke:#ff9933;stroke-width:3.45146;stroke-opacity:1"
     d="m 94.684956,152.28968 -4.030077,-8.45609 4.188279,-8.45609 4.188278,-8.45608 h 10.438054 10.43805 l 4.03028,8.66434 4.03027,8.66435 -4.07818,8.24782 -4.07819,8.24783 H 109.26338 98.715033 Z"
     id="path895"
     transform="scale(0.75)" />
  <path
     style="fill:#ff9933;fill-opacity:1;stroke:#ff9933;stroke-width:3.45146;stroke-opacity:1"
     d="m 128.03048,170.98992 c -1.86097,-3.88014 -3.35157,-7.96614 -3.33666,-9.14638 0.0148,-1.17327 1.51949,-5.31719 3.34371,-9.20872 l 3.31676,-7.0755 h 10.78557 10.78556 l 4.25035,8.5329 4.25034,8.5329 -3.70822,7.68898 -3.70822,7.68898 h -11.30779 -11.30779 z"
     id="path897"
     transform="scale(0.75)" />
  <path
     style="fill:#ff9933;fill-opacity:1;stroke:#ff9933;stroke-width:3.45146;stroke-opacity:1"
     d="m 161.44221,152.27166 -4.22106,-8.4741 4.22988,-8.43807 4.22987,-8.43807 h 10.35257 10.35257 l 4.22106,8.4741 4.22105,8.4741 -4.22987,8.43807 -4.22988,8.43807 h -10.35257 -10.35257 z"
     id="path899"
     transform="scale(0.75)" />
  <path
     style="fill:#ff9933;fill-opacity:1;stroke:#ff9933;stroke-width:3.45146;stroke-opacity:1"
     d="m 195.91984,170.69708 c -4.12101,-8.62697 -4.11608,-8.88147 0.35765,-18.45497 l 3.12288,-6.68279 h 10.75015 10.75016 l 4.23993,8.51199 4.23993,8.51199 -3.66111,7.70989 -3.6611,7.70989 h -11.32425 -11.32424 z"
     id="path901"
     transform="scale(0.75)" />
  <path
     style="fill:#ff9933;fill-opacity:1;stroke:#ff9933;stroke-width:3.45146;stroke-opacity:1"
     d="m 229.42663,152.28968 -4.21189,-8.45609 4.2117,-8.45609 4.21169,-8.45608 h 10.38036 10.38036 l 4.21169,8.45608 4.2117,8.45609 -4.21189,8.45609 -4.21189,8.45608 h -10.37997 -10.37997 z"
     id="path903"
     transform="scale(0.75)" />
  <path
     style="fill:#ff9933;fill-opacity:1;stroke:#ff9933;stroke-width:3.45146;stroke-opacity:1"
     d="m 298.07532,62.801479 c -7.44679,-8.043217 -7.97902,-10.469037 -4.70728,-21.454922 1.13447,-3.809344 1.84402,-5.05398 3.31358,-5.812425 2.2356,-1.153795 14.44343,-3.873115 17.38755,-3.873115 4.21195,0 13.1296,10.748638 13.1296,15.825387 0,4.475337 -2.64867,13.367286 -4.46596,14.992871 -1.56507,1.399964 -10.48058,3.891673 -17.31639,4.839589 -2.74652,0.380857 -2.88494,0.295681 -7.3411,-4.517385 z"
     id="path905"
     transform="scale(0.75)" />
  <path
     style="fill:#ff9933;fill-opacity:1;stroke:#ff9933;stroke-width:3.45146;stroke-opacity:1"
     d="m 396.91834,115.38941 c -2.81035,-1.01838 -13.80586,-14.22086 -13.80586,-16.576903 0,-2.094367 4.11289,-16.24471 5.21339,-17.936599 1.1417,-1.755237 8.38839,-4.244222 17.77768,-6.10601 l 6.07889,-1.205376 2.77247,2.690775 c 4.02884,3.910123 9.17094,11.309457 8.39714,12.08325 -0.63355,0.633559 -6.66445,2.188594 -22.29196,5.747862 -4.3661,0.994409 -8.38672,2.088304 -8.93471,2.430878 -0.80144,0.501017 -0.22303,1.63249 2.95673,5.783953 5.62355,7.34204 5.07529,7.05936 11.71306,6.03913 3.11011,-0.47802 6.20061,-1.01865 6.86776,-1.20139 0.74977,-0.20537 2.0505,0.50523 3.40599,1.86073 2.72203,2.72202 2.56085,2.82934 -7.03502,4.68439 -9.60916,1.85761 -11.88034,2.15292 -13.11556,1.70531 z"
     id="path907"
     transform="scale(0.75)" />
</svg>
